<svg width="18" height="19" viewBox="0 0 18 19" fill="none" xmlns="http://www.w3.org/2000/svg">
<path d="M17.0526 9.47387H15.1578C14.9066 9.47387 14.6656 9.57369 14.4879 9.75136C14.3103 9.92903 14.2105 10.17 14.2105 10.4213C14.2105 10.6725 14.3103 10.9135 14.4879 11.0912C14.6656 11.2688 14.9066 11.3686 15.1578 11.3686V13.2634H14.0359C14.1482 12.96 14.2073 12.6395 14.2105 12.316C14.2106 11.6904 14.0042 11.0822 13.6233 10.5858C13.2424 10.0894 12.7084 9.73254 12.104 9.57064C11.4997 9.40874 10.8588 9.45082 10.2808 9.69036C9.70278 9.92989 9.21998 10.3535 8.9073 10.8954C8.8445 11.0032 8.8036 11.1224 8.78697 11.246C8.77033 11.3696 8.77829 11.4954 8.81037 11.6159C8.84245 11.7365 8.89804 11.8495 8.97393 11.9485C9.04982 12.0476 9.14452 12.1306 9.2526 12.193C9.36067 12.2553 9.48 12.2956 9.60372 12.3117C9.72743 12.3278 9.85311 12.3193 9.97353 12.2867C10.0939 12.254 10.2067 12.1979 10.3054 12.1216C10.4041 12.0453 10.4867 11.9502 10.5486 11.8419C10.6318 11.6981 10.7513 11.5787 10.8952 11.4957C11.039 11.4126 11.2022 11.3688 11.3683 11.3686C11.6196 11.3686 11.8605 11.4685 12.0382 11.6461C12.2159 11.8238 12.3157 12.0648 12.3157 12.316C12.3157 12.5673 12.2159 12.8083 12.0382 12.9859C11.8605 13.1636 11.6196 13.2634 11.3683 13.2634C11.117 13.2634 10.8761 13.3632 10.6984 13.5409C10.5207 13.7186 10.4209 13.9595 10.4209 14.2108C10.4209 14.4621 10.5207 14.703 10.6984 14.8807C10.8761 15.0584 11.117 15.1582 11.3683 15.1582C11.6196 15.1582 11.8605 15.258 12.0382 15.4357C12.2159 15.6133 12.3157 15.8543 12.3157 16.1056C12.3157 16.3568 12.2159 16.5978 12.0382 16.7755C11.8605 16.9532 11.6196 17.053 11.3683 17.053C11.2022 17.0528 11.039 17.009 10.8952 16.9259C10.7513 16.8429 10.6318 16.7235 10.5486 16.5797C10.4867 16.4714 10.4041 16.3763 10.3054 16.3C10.2067 16.2236 10.094 16.1676 9.97354 16.1349C9.85312 16.1023 9.72744 16.0938 9.60373 16.1099C9.48001 16.126 9.36068 16.1663 9.25261 16.2286C9.14453 16.291 9.04983 16.374 8.97394 16.4731C8.89805 16.5721 8.84246 16.6851 8.81038 16.8057C8.7783 16.9262 8.77034 17.052 8.78698 17.1756C8.80361 17.2992 8.84451 17.4184 8.90731 17.5262C9.21999 18.0681 9.70279 18.4917 10.2808 18.7312C10.8588 18.9708 11.4997 19.0128 12.104 18.8509C12.7084 18.6891 13.2424 18.3322 13.6233 17.8358C14.0041 17.3395 14.2105 16.7312 14.2105 16.1056C14.2073 15.7821 14.1482 15.4616 14.0359 15.1582H15.1578V18.0004C15.1578 18.2516 15.2577 18.4926 15.4353 18.6703C15.613 18.8479 15.854 18.9477 16.1052 18.9477C16.3565 18.9477 16.5975 18.8479 16.7751 18.6703C16.9528 18.4926 17.0526 18.2516 17.0526 18.0004V11.3686C17.3039 11.3686 17.5448 11.2688 17.7225 11.0912C17.9002 10.9135 18 10.6725 18 10.4213C18 10.17 17.9002 9.92903 17.7225 9.75136C17.5448 9.57369 17.3039 9.47387 17.0526 9.47387ZM5.71266 8.7564C5.77363 9.00005 5.9289 9.20951 6.14431 9.33868C6.25097 9.40264 6.36918 9.44497 6.4922 9.46324C6.61522 9.48152 6.74063 9.47538 6.86127 9.44519C6.98192 9.415 7.09544 9.36134 7.19535 9.28728C7.29525 9.21321 7.3796 9.1202 7.44356 9.01354C7.50752 8.90688 7.54984 8.78867 7.56812 8.66565C7.58639 8.54263 7.58026 8.41722 7.55007 8.29658L5.88566 1.63665C5.76883 1.16918 5.49909 0.754183 5.11931 0.457632C4.73953 0.16108 4.27151 0 3.78966 0C3.30781 0 2.83979 0.16108 2.46001 0.457632C2.08023 0.754183 1.81049 1.16918 1.69366 1.63665L0.0283344 8.29658C-0.032642 8.54023 0.00567099 8.79813 0.134845 9.01354C0.264018 9.22894 0.473472 9.38421 0.717127 9.44519C0.960783 9.50617 1.21868 9.46786 1.43409 9.33868C1.6495 9.20951 1.80477 9.00005 1.86574 8.7564L2.39703 6.63171H5.18166L5.71266 8.7564ZM2.87084 4.73694L3.53107 2.09647C3.55109 2.04411 3.58653 1.99906 3.6327 1.96729C3.67887 1.93551 3.73361 1.91849 3.78966 1.91849C3.84571 1.91849 3.90045 1.93551 3.94662 1.96729C3.99279 1.99906 4.02823 2.04411 4.04825 2.09647L4.70813 4.73694H2.87084ZM10.4209 4.73694H11.3683C11.6195 4.73719 11.8603 4.83708 12.0379 5.0147C12.2155 5.19232 12.3154 5.43314 12.3157 5.68433V6.63171C12.3157 6.88298 12.4155 7.12395 12.5932 7.30162C12.7708 7.47929 13.0118 7.5791 13.2631 7.5791C13.5143 7.5791 13.7553 7.47929 13.933 7.30162C14.1106 7.12395 14.2105 6.88298 14.2105 6.63171V5.68433C14.2096 4.93079 13.9099 4.20835 13.3771 3.67552C12.8443 3.14269 12.1218 2.84299 11.3683 2.84217H10.4209C10.1696 2.84217 9.92867 2.94198 9.751 3.11965C9.57333 3.29732 9.47352 3.53829 9.47352 3.78955C9.47352 4.04081 9.57333 4.28179 9.751 4.45946C9.92867 4.63713 10.1696 4.73694 10.4209 4.73694ZM6.63136 13.2634H5.68397C5.43278 13.2632 5.19196 13.1633 5.01434 12.9857C4.83673 12.808 4.73683 12.5672 4.73658 12.316V11.3686C4.73658 11.1174 4.63677 10.8764 4.4591 10.6987C4.28143 10.5211 4.04046 10.4213 3.7892 10.4213C3.53793 10.4213 3.29696 10.5211 3.11929 10.6987C2.94162 10.8764 2.84181 11.1174 2.84181 11.3686V12.316C2.84263 13.0696 3.14234 13.792 3.67517 14.3248C4.208 14.8577 4.93043 15.1574 5.68397 15.1582H6.63136C6.88262 15.1582 7.12359 15.0584 7.30126 14.8807C7.47893 14.703 7.57874 14.4621 7.57874 14.2108C7.57874 13.9595 7.47893 13.7186 7.30126 13.5409C7.12359 13.3632 6.88262 13.2634 6.63136 13.2634Z" fill="#02111F"/>
</svg>
